<svg xmlns="http://www.w3.org/2000/svg" id="a" viewBox="0 0 77.28 76.6" width="77.28" height="76.6"><metadata><rdf:RDF xmlns:rdf="http://www.w3.org/1999/02/22-rdf-syntax-ns#" xmlns:dc="http://purl.org/dc/elements/1.1/"><rdf:Description><dc:creator>RealFaviconGenerator</dc:creator><dc:source>https://realfavicongenerator.net</dc:source></rdf:Description></rdf:RDF></metadata><circle cx="38.3" cy="39.15" r="36" style="fill:#f5f0e8;"></circle><g style="isolation:isolate; opacity:.4;"><rect x="18.3" y="49.15" width="9" height="14" rx="2" ry="2" style="fill:#4a7c59;"></rect></g><g style="isolation:isolate; opacity:.65;"><rect x="31.3" y="39.15" width="9" height="24" rx="2" ry="2" style="fill:#4a7c59;"></rect></g><rect x="44.3" y="27.15" width="9" height="36" rx="2" ry="2" style="fill:#1a3d2b;"></rect><path d="M57.3,22.4c-.69,0-1.25-.56-1.25-1.25v-3.98l-4.87,4.87c-.49.49-1.28.49-1.77,0s-.49-1.28,0-1.77l4.87-4.87h-3.98c-.69,0-1.25-.56-1.25-1.25s.56-1.25,1.25-1.25h7.01c.17,0,.33.03.48.1h0s0,0,0,0c.14.06.26.14.38.25.02.02.03.03.05.05.11.11.19.24.25.38,0,0,0,0,0,0h0c.06.15.09.31.1.48h0v7.01c0,.69-.56,1.25-1.25,1.25Z" style="fill:#e8b84b;"></path></svg>